# xmcd CD database file
#
# Track frame offsets:
#	150
#	17874
#	40861
#	60971
#	81680
#	101992
#	127525
#	148370
#	170873
#	188764
#	209388
#	227710
#	249815
#	268801
#	291737
#	311385
#	334338
#
# Disc length: 4739 seconds
#
# Revision: 0
# Processed by: cddbd v1.5.2PL0 Copyright (c) Steve Scherf et al.
# Submitted via: CDex 1.70beta2
#
DISCID=05128111
DTITLE=Various Artist - Salsa Furiosa 2009
DYEAR=2009
DGENRE=Salsa
TTITLE0=Aquel Lugar - Adolecentes
TTITLE1=Extrañandote - Michel - Rubbz Perey
TTITLE2=Suelta mi mano - Asdrubar
TTITLE3=Virgen - Adolecentes
TTITLE4=Conteo regresivo - Gilberto S. Rosa
TTITLE5=Y yo adorandote - Jose a. el canario
TTITLE6=Por tu amor - Sexappeal
TTITLE7=Nunca habia llorado asi - Victor Manuel
TTITLE8=Mi gente - Marc Antony
TTITLE9=Creo en el amor - Rey Ruiz
TTITLE10=Si no van a morir mi muerte - Raulin Rosendo
TTITLE11=Te di - Asdrubar
TTITLE12=No te iras - Sexappeal
TTITLE13=Tu te imaginas - Michel
TTITLE14=Cuando hablan las miradas - Orq. Guayacan
TTITLE15=Persona ideal - Adolecentes
TTITLE16=He tratado - Victor Manuel
EXTD=YEAR: 2009
EXTT0=
EXTT1=
EXTT2=
EXTT3=
EXTT4=
EXTT5=
EXTT6=
EXTT7=
EXTT8=
EXTT9=
EXTT10=
EXTT11=
EXTT12=
EXTT13=
EXTT14=
EXTT15=
EXTT16=
PLAYORDER=
